# xmcd
#
# Track frame offsets:
#	150
#	24414
#	44104
#	71406
#
# Disc length: 1274 seconds
#
# Revision: 1
# Processed by: cddbd v1.5.1PL0 Copyright (c) Steve Scherf et al.
# Submitted via: CDex 1.50Beta5
#
DISCID=3104f804
DTITLE=LINDBERG - 願いがかなうように
DYEAR=1999
DGENRE=Rock
TTITLE0=願いがかなうように
TTITLE1=シアワセ
TTITLE2=every little thing every precious thing
TTITLE3=願いがかなうように
EXTD=
EXTT0=
EXTT1=
EXTT2=
EXTT3=
PLAYORDER=
